<?xml version="1.0" encoding="UTF-8" standalone="no"?>
<!-- Created with Inkscape (http://www.inkscape.org/) -->

<svg
   width="615"
   height="300"
   viewBox="0 0 162.71874 79.374996"
   version="1.1"
   id="svg5"
   xml:space="preserve"
   inkscape:version="1.2 (dc2aedaf03, 2022-05-15)"
   sodipodi:docname="og_image.svg"
   xmlns:inkscape="http://www.inkscape.org/namespaces/inkscape"
   xmlns:sodipodi="http://sodipodi.sourceforge.net/DTD/sodipodi-0.dtd"
   xmlns="http://www.w3.org/2000/svg"
   xmlns:svg="http://www.w3.org/2000/svg"><sodipodi:namedview
     id="namedview7"
     pagecolor="#ffffff"
     bordercolor="#000000"
     borderopacity="0.25"
     inkscape:showpageshadow="2"
     inkscape:pageopacity="0.0"
     inkscape:pagecheckerboard="0"
     inkscape:deskcolor="#d1d1d1"
     inkscape:document-units="px"
     showgrid="false"
     showguides="true"
     inkscape:zoom="2.025849"
     inkscape:cx="303.08281"
     inkscape:cy="128.09444"
     inkscape:window-width="1920"
     inkscape:window-height="991"
     inkscape:window-x="-9"
     inkscape:window-y="1271"
     inkscape:window-maximized="1"
     inkscape:current-layer="layer1"><sodipodi:guide
       position="81.35937,71.930586"
       orientation="-1,0"
       id="guide863"
       inkscape:locked="false"
       inkscape:label=""
       inkscape:color="rgb(0,134,229)" /><sodipodi:guide
       position="0,4.375"
       orientation="0,1"
       id="guide872"
       inkscape:locked="false"
       inkscape:label=""
       inkscape:color="rgb(0,134,229)" /><sodipodi:guide
       position="13.229166,39.687498"
       orientation="0,1"
       id="guide390"
       inkscape:locked="false"
       inkscape:label=""
       inkscape:color="rgb(0,134,229)" /></sodipodi:namedview><defs
     id="defs2" /><g
     inkscape:label="Camada 1"
     inkscape:groupmode="layer"
     id="layer1"><path
       style="fill:#caa640;fill-opacity:1;stroke-width:0.129698"
       d="m 66.05787,71.236489 c 0.003,-1.654408 0.177775,-2.282131 0.79242,-2.847164 0.670999,-0.616843 1.08513,-0.687099 4.05036,-0.687099 3.032935,0 2.936245,0.02556 2.936245,-0.767373 0,-0.520111 0.480444,-1.911914 0.943946,-2.734473 0.58571,-1.039467 1.929113,-2.318177 3.044261,-2.897658 l 0.940313,-0.488608 V 45.776209 c 0,-8.270828 -0.04667,-15.037871 -0.104111,-15.037871 -0.05723,0 -0.357334,-0.248001 -0.666845,-0.551223 -0.644534,-0.631328 -1.247256,-1.824806 -1.375487,-2.723652 l -0.08789,-0.616066 h 4.828274 4.828277 l -0.08789,0.616066 c -0.128218,0.898846 -0.730948,2.092324 -1.375483,2.723652 -0.309499,0.303167 -0.609593,0.551223 -0.666845,0.551223 -0.05727,0 -0.104111,6.767043 -0.104111,15.037871 v 15.037885 l 0.940305,0.488612 c 1.115152,0.579473 2.458559,1.85819 3.044269,2.897658 0.463502,0.822559 0.943947,2.214366 0.943947,2.734474 0,0.792848 -0.09906,0.767112 2.9645,0.77022 2.451377,0.0024 2.872786,0.03333 3.32584,0.242279 1.163801,0.537111 1.491531,1.266043 1.491531,3.317388 v 1.495688 H 81.35937 66.05502 l 0.0027,-1.523952 z M 58.467694,56.097738 c -1.890262,-0.349056 -4.022179,-1.276284 -5.528668,-2.404485 -1.728024,-1.294104 -3.386807,-3.325139 -4.264658,-5.221704 -0.58825,-1.270884 -0.655134,-1.187799 1.015695,-1.26159 l 1.4685,-0.06483 4.325269,-11.463416 c 2.378895,-6.30487 4.405585,-11.543729 4.503758,-11.641895 0.433389,-0.433389 1.547706,-0.426001 1.911789,0.01278 0.08633,0.104055 2.10044,5.342453 4.475742,11.640895 l 4.318733,11.451721 1.441825,0.03666 c 1.667604,0.04222 1.632894,0.0017 1.065199,1.253595 -1.777129,3.919338 -5.614052,6.900708 -9.869509,7.668787 -1.212051,0.218721 -3.661752,0.215498 -4.863675,-0.0067 z m 9.203238,-9.763233 c -0.180057,-0.481501 -1.767535,-4.693765 -3.52778,-9.360566 -3.200151,-8.484347 -3.200451,-8.485064 -3.382156,-8.041274 -0.09994,0.24411 -1.658707,4.354229 -3.463913,9.133596 -1.805207,4.779365 -3.322518,8.791895 -3.371802,8.916728 -0.08467,0.214445 0.299945,0.226999 6.991686,0.226999 h 7.0813 z m 31.651597,9.771523 c -4.25593,-0.824851 -8.044599,-3.788904 -9.804668,-7.670648 -0.567695,-1.252043 -0.602421,-1.211173 1.06533,-1.253591 l 1.441939,-0.03666 4.323849,-11.467864 c 2.378111,-6.30732 4.402151,-11.546178 4.497881,-11.641895 0.43322,-0.433222 1.54572,-0.418611 1.914,0.025 0.09,0.108445 2.10668,5.346858 4.48148,11.640893 l 4.31784,11.443711 1.4685,0.06488 c 1.67083,0.07378 1.60394,-0.0094 1.0157,1.261593 -0.67096,1.449571 -1.55924,2.669144 -2.90698,3.991179 -1.79358,1.75935 -3.59112,2.788084 -6.0353,3.454019 -1.27022,0.34611 -4.43568,0.449722 -5.779571,0.189278 z m 9.470931,-9.123039 c -0.0495,-0.12489 -1.5666,-4.137363 -3.3718,-8.916728 -1.80521,-4.779367 -3.36397,-8.88948 -3.46391,-9.133596 -0.18167,-0.443779 -0.182,-0.443056 -3.382164,8.04127 -1.760247,4.666805 -3.347742,8.879069 -3.527778,9.36057 l -0.327331,0.875454 h 7.081303 c 6.69176,0 7.07637,-0.01276 6.99168,-0.226998 z M 79.647653,23.43085 c -1.10605,-0.464333 -1.876128,-1.179095 -2.415535,-2.242073 -0.306557,-0.60405 -0.550111,-1.891845 -0.453502,-2.39734 0.055,-0.288666 -0.04555,-0.417889 -0.72638,-0.929511 -1.257131,-0.945 -2.013791,-1.185706 -3.706871,-1.179195 -1.828443,0.0072 -2.726143,0.289056 -6.180008,1.941623 -1.401649,0.67065 -2.608772,1.219361 -2.682483,1.219361 -0.07372,0 -0.172278,0.120556 -0.219055,0.267945 -0.124556,0.392389 -0.818395,1.140745 -1.278068,1.378451 -0.887267,0.458833 -2.418412,0.117778 -3.044462,-0.678129 -0.684418,-0.870089 -0.715089,-2.326139 -0.06622,-3.141956 0.934768,-1.175234 2.672952,-1.39474 3.698085,-0.467001 0.205779,0.186167 0.414001,0.111779 2.550251,-0.911066 1.279423,-0.612595 2.960856,-1.327896 3.736506,-1.589552 1.262236,-0.425833 1.58727,-0.482111 3.096352,-0.536388 1.301325,-0.04667 1.878445,-0.01167 2.529107,0.154111 1.012585,0.257889 2.213358,0.811589 2.907346,1.340561 l 0.507944,0.387167 0.5945,-0.4555 c 0.326945,-0.2505 0.793235,-0.539111 1.036139,-0.641317 l 0.441668,-0.185778 -0.334833,-0.219666 c -0.739116,-0.484834 -1.263983,-1.478579 -1.258273,-2.382268 0.002,-0.316611 0.165277,-0.934573 0.379832,-1.437528 0.357834,-0.83884 2.42712,-4.1112184 2.599729,-4.1112184 0.172668,0 2.241898,3.2723784 2.599728,4.1112234 0.214559,0.502945 0.377837,1.120873 0.379836,1.437523 0.0061,0.903689 -0.519168,1.897417 -1.258261,2.382268 l -0.334832,0.219666 0.441663,0.185778 c 0.242892,0.102167 0.70917,0.390834 1.036142,0.641317 l 0.594501,0.4555 0.507944,-0.387167 c 0.693988,-0.528945 1.894753,-1.082639 2.907338,-1.340567 0.650663,-0.165722 1.227787,-0.200889 2.529107,-0.154111 1.509086,0.05444 1.834113,0.110556 3.096352,0.536389 0.775654,0.261611 2.457079,0.976956 3.736502,1.589551 2.13623,1.022851 2.344527,1.097256 2.550248,0.911072 1.02514,-0.927739 2.76332,-0.708233 3.69809,0.467001 0.64889,0.815817 0.61822,2.271862 -0.0662,3.141956 -0.62605,0.795901 -2.15719,1.136951 -3.04446,0.678129 -0.45967,-0.237723 -1.153522,-0.986056 -1.278066,-1.378456 -0.04667,-0.147334 -0.145332,-0.267945 -0.219055,-0.267945 -0.07373,0 -1.280835,-0.548723 -2.682493,-1.219362 -3.453832,-1.652556 -4.351532,-1.934595 -6.17998,-1.941623 -1.69308,-0.0067 -2.44974,0.234223 -3.706867,1.179201 -0.680605,0.511611 -0.781563,0.640817 -0.726384,0.929511 0.100832,0.527389 -0.151777,1.801023 -0.489223,2.466962 -0.421555,0.831901 -1.291584,1.672257 -2.146085,2.072885 -1.040821,0.488 -2.628907,0.531222 -3.657182,0.09956 z"
       id="path2101" /></g></svg>
